<?xml version="1.0" encoding="UTF-8" standalone="no"?>
<!-- Created with Inkscape (http://www.inkscape.org/) -->

<svg
   xmlns:dc="http://purl.org/dc/elements/1.1/"
   xmlns:cc="http://creativecommons.org/ns#"
   xmlns:rdf="http://www.w3.org/1999/02/22-rdf-syntax-ns#"
   xmlns:svg="http://www.w3.org/2000/svg"
   xmlns="http://www.w3.org/2000/svg"
   xmlns:sodipodi="http://sodipodi.sourceforge.net/DTD/sodipodi-0.dtd"
   xmlns:inkscape="http://www.inkscape.org/namespaces/inkscape"
   width="3240"
   height="3240"
   id="svg2"
   version="1.1"
   inkscape:version="0.48.4 r9939"
   sodipodi:docname="poster1.svg"
   inkscape:export-filename="C:\Users\Ryan\Documents\GitHub\puddles\poster1d.png"
   inkscape:export-xdpi="72"
   inkscape:export-ydpi="72">
  <defs
     id="defs4" />
  <sodipodi:namedview
     id="base"
     pagecolor="#ffffff"
     bordercolor="#666666"
     borderopacity="1.0"
     inkscape:pageopacity="0.0"
     inkscape:pageshadow="2"
     inkscape:zoom="0.24748737"
     inkscape:cx="2045.885"
     inkscape:cy="1171.2592"
     inkscape:document-units="in"
     inkscape:current-layer="layer3"
     showgrid="false"
     units="in"
     showguides="true"
     inkscape:guide-bbox="true"
     guidecolor="#ff00ea"
     guideopacity="0.49803922"
     guidehicolor="#00ffea"
     guidehiopacity="0.49803922"
     inkscape:window-width="1600"
     inkscape:window-height="1177"
     inkscape:window-x="1358"
     inkscape:window-y="-8"
     inkscape:window-maximized="1">
    <sodipodi:guide
       orientation="0,1"
       position="180,1260"
       id="guide3755" />
    <sodipodi:guide
       orientation="1,0"
       position="630,1955.6553"
       id="guide3757" />
    <sodipodi:guide
       orientation="0,1"
       position="1260,180"
       id="guide3759" />
    <sodipodi:guide
       orientation="1,0"
       position="2790,2008.1833"
       id="guide3761" />
    <sodipodi:guide
       orientation="1,0"
       position="450,2137.4828"
       id="guide4279" />
    <sodipodi:guide
       orientation="0,1"
       position="720,1170"
       id="guide4281" />
    <sodipodi:guide
       orientation="1,0"
       position="2610,2824.3865"
       id="guide4283" />
    <sodipodi:guide
       orientation="0,1"
       position="720,270"
       id="guide4285" />
    <sodipodi:guide
       orientation="0,1"
       position="720,540"
       id="guide4287" />
  </sodipodi:namedview>
  <metadata
     id="metadata7">
    <rdf:RDF>
      <cc:Work
         rdf:about="">
        <dc:format>image/svg+xml</dc:format>
        <dc:type
           rdf:resource="http://purl.org/dc/dcmitype/StillImage" />
        <dc:title></dc:title>
      </cc:Work>
    </rdf:RDF>
  </metadata>
  <g
     inkscape:label="base"
     inkscape:groupmode="layer"
     id="layer1"
     transform="translate(0,2187.6403)">
    <rect
       style="color:#000000;fill:#18453b;fill-opacity:1;fill-rule:nonzero;stroke:none;stroke-width:1.95200002;marker:none;visibility:visible;display:inline;overflow:visible;enable-background:accumulate"
       id="rect2985"
       width="3240"
       height="3240"
       x="0"
       y="-2187.6401" />
  </g>
  <g
     inkscape:groupmode="layer"
     id="layer2"
     inkscape:label="o"
     transform="translate(0,1800)">
    <path
       id="path4239"
       d="m 2022.9569,-275.97118 c -4.2912,78.86663 -11.4509,160.63208 -53.5492,225.662479 -91.588,121.177845 -234.6367,173.125411 -378.3739,174.354071 v 0.22455 c -143.6991,-1.30495 -286.6983,-53.138276 -378.2864,-174.335111 -42.026,-64.996169 -49.2807,-146.757829 -53.5948,-225.590179 -9.6591,-180.7681 7.5401,-494.7013 16.6476,-527.67681 45.4954,-164.14342 203.8677,-249.83112 368.361,-265.10912 0,0 26.4779,-2.0619 48.5732,-2.6478 v -0.1218 c 21.3687,0.6696 45.2899,2.5071 45.2899,2.5071 164.4363,15.3274 322.8087,100.89718 368.3954,265.10141 9.115,32.90326 26.2344,346.92017 16.5372,527.63121 m 368.323,-560.77026 c -105.7209,-206.48886 -333.9208,-279.08596 -544.2597,-322.42436 -72.6085,-16.1492 -212.8382,-23.0121 -212.8382,-23.0121 -14.3954,0.1216 -28.7717,0.3652 -43.1482,0.6505 v 0.2892 c -14.3193,-0.3272 -28.6767,-0.5783 -43.0797,-0.6506 0,0 -140.2106,6.8135 -212.8458,22.9703 -210.3274,43.3041 -438.48162,115.9469 -544.27875,322.46239 -67.49556,174.55954 -67.32056,401.92247 -40.53465,579.12596 l 2.09619,14.80626 c 21.654,179.782814 182.49145,326.331389 360.93511,387.52702 144.2965,62.12783 312.5257,85.99214 479.4044,83.34425 v -0.23967 c 165.7944,2.34732 332.8215,-21.72227 476.0907,-83.40122 178.4744,-61.214666 339.2547,-207.767051 360.92,-387.50803 l 2.1076,-14.82147 c 26.74,-177.2073 27.037,-404.51318 -40.569,-579.11836"
       inkscape:connector-curvature="0"
       style="fill:#fce122;fill-opacity:1" />
  </g>
  <g
     inkscape:groupmode="layer"
     id="layer3"
     inkscape:label="win"
     transform="translate(0,1800)">
    <g
       style="font-size:294.85525513px;font-style:oblique;font-variant:normal;font-weight:bold;font-stretch:normal;text-align:start;line-height:125%;letter-spacing:0px;word-spacing:0px;writing-mode:lr-tb;text-anchor:start;fill:#ffffff;fill-opacity:1;stroke:none;font-family:Futura LT;-inkscape-font-specification:Futura LT Bold Oblique"
       id="text4275"
       transform="matrix(0.92935912,0,0,0.92935912,30.507596,48.661483)">
      <path
         d="m 720.81952,466.53702 15.91794,143.59437 0.59388,0 69.28667,-143.59437 45.99915,0 20.92997,143.59437 0.59389,0 64.57157,-143.59437 60.15342,0 -106.15257,222.32022 -58.96565,0 -18.58143,-128.8552 -0.58488,0 -63.98669,128.8552 -58.67771,0 -31.25098,-222.32022 z"
         id="path3791"
         inkscape:connector-curvature="0" />
      <path
         d="m 1071.1581,466.53702 -35.0843,222.32022 -57.79583,0 35.09323,-222.32022 z"
         id="path3793"
         inkscape:connector-curvature="0" />
      <path
         d="m 1073.8756,688.85724 35.0932,-222.32022 57.7869,0 84.3318,135.92784 0.5848,0 21.5239,-135.92784 57.7959,0 -35.0933,222.32022 -57.7868,0 -84.3318,-136.22478 -0.5849,0 -21.5239,136.22478 z"
         id="path3795"
         inkscape:connector-curvature="0" />
      <path
         d="m 1550.8378,515.47861 -27.4178,173.37863 -57.7958,0 27.4177,-173.37863 -47.7628,0 7.6665,-48.94159 153.3215,0 -7.6665,48.94159 z"
         id="path3797"
         inkscape:connector-curvature="0" />
      <path
         d="m 1671.4956,552.33551 83.4409,0 13.5604,-85.79849 57.7959,0 -35.0843,222.32022 -57.7959,0 14.4513,-91.10747 -83.45,0 -14.4422,91.10747 -57.7959,0 35.0933,-222.32022 57.7869,0 z"
         id="path3799"
         inkscape:connector-curvature="0" />
      <path
         d="m 1982.7817,515.47861 -68.7018,0 -5.8938,37.15385 65.1564,0 -7.6575,48.95057 -65.1655,0 -6.1908,38.33263 68.7018,0 -7.6665,48.94158 -126.4977,0 35.0933,-222.32022 126.4886,0 z"
         id="path3801"
         inkscape:connector-curvature="0" />
      <path
         d="m 2092.6235,688.85724 35.0933,-222.32022 81.9652,0 c 20.4439,2.3e-4 38.5289,4.86529 54.255,14.5952 15.7258,9.73032 27.3231,23.14673 34.7919,40.24925 7.4683,17.10286 9.5814,35.87473 6.3392,56.31566 -3.2426,20.44116 -11.302,39.21303 -24.1783,56.31566 -12.8767,17.10275 -28.7497,30.51915 -47.6188,40.24926 -18.8696,9.73013 -38.4273,14.59519 -58.6733,14.59519 z m 85.2136,-173.37863 -19.7512,124.43705 12.9665,0 c 18.6743,5e-5 34.8427,-5.20995 48.5052,-15.62999 13.6622,-10.41992 22.1641,-25.95092 25.5056,-46.59304 2.9512,-19.46012 -0.4876,-34.69417 -10.3165,-45.7022 -9.8293,-11.00772 -24.279,-16.51165 -43.3492,-16.51182 z"
         id="path3803"
         inkscape:connector-curvature="0" />
      <path
         d="m 2456.7564,650.22767 -79.6077,0 -21.5238,38.62957 -61.3322,0 120.5948,-222.32022 63.0958,0 48.6536,222.32022 -61.6201,0 z m -8.5484,-44.22649 -12.3816,-70.76238 -0.5939,0 -35.0842,70.76238 z"
         id="path3805"
         inkscape:connector-curvature="0" />
      <path
         d="m 2619.0042,582.11978 -63.6897,-115.58276 69.2866,0 32.1419,60.44137 51.0111,-60.44137 69.2867,0 -100.2497,115.58276 -16.8088,106.73746 -57.7868,0 z"
         id="path3807"
         inkscape:connector-curvature="0" />
    </g>
  </g>
  <g
     inkscape:groupmode="layer"
     id="layer4"
     inkscape:label="mask"
     transform="translate(0,1800)" />
</svg>
